Coordinates
version=1
nRows=14
nColumns=63
inDegrees=yes

Units are S.I. units (second, meters, Newtons, ...)
If the header above contains a line with 'inDegrees', this indicates whether rotational values are in degrees (yes) or radians (no).

endheader
time	pelvis_tilt	pelvis_list	pelvis_rotation	pelvis_tx	pelvis_ty	pelvis_tz	hip_flexion_r	hip_adduction_r	hip_rotation_r	knee_angle_r	knee_angle_r_beta	ankle_angle_r	subtalar_angle_r	mtp_angle_r	hip_flexion_l	hip_adduction_l	hip_rotation_l	knee_angle_l	knee_angle_l_beta	ankle_angle_l	subtalar_angle_l	mtp_angle_l	L5_S1_Flex_Ext	L5_S1_Lat_Bending	L5_S1_axial_rotation	L4_L5_Flex_Ext	L4_L5_Lat_Bending	L4_L5_axial_rotation	L3_L4_Flex_Ext	L3_L4_Lat_Bending	L3_L4_axial_rotation	L2_L3_Flex_Ext	L2_L3_Lat_Bending	L2_L3_axial_rotation	L1_L2_Flex_Ext	L1_L2_Lat_Bending	L1_L2_axial_rotation	L1_T12_Flex_Ext	L1_T12_Lat_Bending	L1_T12_axial_rotation	Abs_r3	Abs_r2	Abs_r1	Abs_t1	Abs_t2	neck_flexion	neck_bending	neck_rotation	arm_flex_r	arm_add_r	arm_rot_r	elbow_flex_r	pro_sup_r	wrist_flex_r	wrist_dev_r	arm_flex_l	arm_add_l	arm_rot_l	elbow_flex_l	pro_sup_l	wrist_flex_l	wrist_dev_l
2.233333	10.817081	-17.654114	98.769553	0.148799	0.566534	0.649115	30.641914	5.505640	-20.089253	21.449333	0.374361	38.740006	-3.044366	0.000000	32.900579	-8.251501	4.301225	21.858035	0.381495	43.049885	11.687754	0.000000	0.192904	2.416140	0.197284	0.358242	3.213467	0.209615	0.316922	5.874603	0.209615	0.220470	5.874603	0.172624	0.179131	4.926993	0.160294	0.110225	3.742601	0.147963	1.377894	27.331862	1.097237	0.000000	0.000000	28.358950	-9.613370	19.707505	10.257589	-16.791309	53.545445	22.565328	56.331688	-8.176940	4.429642	23.288818	0.308728	29.348247	146.354632	89.013238	-5.672971	-12.269797
2.250000	10.874768	-17.910995	98.835350	0.149207	0.565725	0.650233	31.109469	5.491060	-20.016991	21.711985	0.378946	38.843404	-3.171910	0.000000	33.402627	-8.285361	4.156752	22.073423	0.385254	43.171513	11.974506	0.000000	0.211333	2.412317	0.152470	0.392467	3.208381	0.161999	0.347200	5.865307	0.161999	0.241533	5.865307	0.133411	0.196244	4.919196	0.123882	0.120756	3.736679	0.114352	1.509534	27.288610	0.847991	0.000000	0.000000	28.367105	-9.171744	20.068197	10.277740	-16.703175	52.691124	22.793366	57.037696	-8.025374	4.916839	22.263126	-0.024912	28.866747	144.955581	88.673986	-4.914828	-10.837762
2.266667	10.977659	-18.100667	99.022069	0.149433	0.565080	0.651244	31.464802	5.487360	-20.097651	21.890018	0.382053	38.918502	-3.265951	0.000000	33.849854	-8.295658	4.221289	22.273210	0.388741	43.219412	12.172204	0.000000	0.227232	2.416346	0.094404	0.421992	3.213740	0.100304	0.373319	5.875103	0.100304	0.259703	5.875103	0.082603	0.211007	4.927412	0.076703	0.129840	3.742919	0.070803	1.623094	27.334184	0.525046	0.000000	0.000000	28.375283	-8.746982	20.458341	10.220611	-16.667979	51.629007	23.089218	57.776717	-7.900296	5.380568	21.098894	-0.315952	28.221524	143.035097	88.343691	-3.698107	-9.038484
2.283333	11.116015	-18.241320	99.258915	0.149546	0.564640	0.652117	31.720526	5.505806	-20.286826	21.982377	0.383665	38.954162	-3.287022	0.000000	34.236391	-8.294840	4.468584	22.449726	0.391822	43.186220	12.203868	0.000000	0.242560	2.428089	0.035788	0.450458	3.229358	0.038025	0.398502	5.903654	0.038025	0.277222	5.903654	0.031314	0.225241	4.951358	0.029078	0.138599	3.761109	0.026841	1.732582	27.467023	0.199042	0.000000	0.000000	28.381723	-8.454476	20.875249	10.081636	-16.685523	50.353426	23.440602	58.577665	-7.758785	5.802330	19.824903	-0.557508	27.482166	140.481439	88.049570	-2.339785	-6.985609
2.300000	11.274257	-18.312667	99.531977	0.149563	0.564482	0.652863	31.856815	5.553896	-20.506090	21.982195	0.383662	38.924325	-3.353347	0.000000	34.528539	-8.282784	4.877841	22.585025	0.394183	43.072170	12.097126	0.000000	0.254004	2.445400	-0.018575	0.471711	3.252382	-0.019736	0.417303	5.945746	-0.019736	0.290301	5.945746	-0.016253	0.235868	4.986660	-0.015092	0.145138	3.787925	-0.013931	1.814326	27.662855	-0.103307	0.000000	0.000000	28.385631	-8.309861	21.239444	9.897239	-16.745414	49.026284	23.810666	59.217577	-7.637715	6.091906	18.590646	-0.757255	26.981412	137.064354	87.804877	-1.696101	-5.195576
2.316667	11.442048	-18.296371	99.844673	0.149415	0.564648	0.653476	31.849179	5.587113	-20.891930	21.910748	0.382415	38.875821	-3.288080	0.000000	34.687662	-8.226818	5.559115	22.649174	0.395303	42.873679	11.724849	0.000000	0.258471	2.467955	-0.066129	0.480007	3.282380	-0.070262	0.424642	6.000585	-0.070262	0.295407	6.000585	-0.057863	0.240016	5.032653	-0.053730	0.147690	3.822862	-0.049597	1.846233	27.917995	-0.367789	0.000000	0.000000	28.386410	-8.326438	21.547600	9.586759	-16.829273	46.992386	24.258800	60.428735	-7.495788	6.374563	17.478642	-0.822701	26.552516	132.660316	87.634869	-1.228634	-3.411936
2.333333	11.621542	-18.215321	100.193015	0.149233	0.565101	0.653991	31.728937	5.629995	-21.349497	21.759569	0.379776	38.758798	-3.251175	0.000000	34.755311	-8.168574	6.334164	22.660782	0.395505	42.642585	11.336191	0.000000	0.257719	2.492765	-0.112431	0.478610	3.315378	-0.119458	0.423407	6.060910	-0.119458	0.294547	6.060910	-0.098377	0.239318	5.083247	-0.091350	0.147261	3.861294	-0.084323	1.840863	28.198661	-0.625309	0.000000	0.000000	28.382451	-8.437674	21.783658	9.345584	-16.931647	45.296486	24.630247	61.202602	-7.366443	6.445096	16.615961	-0.734130	26.442698	127.063385	87.571389	-1.479860	-1.960877
2.350000	11.752684	-18.097816	100.495556	0.149152	0.565760	0.654423	31.544175	5.657255	-21.769654	21.576941	0.376589	38.573243	-3.303926	0.000000	34.721719	-8.069042	7.218786	22.592575	0.394315	42.378944	10.794034	0.000000	0.251720	2.510754	-0.146612	0.467469	3.339302	-0.155775	0.413550	6.104646	-0.155775	0.287690	6.104646	-0.128285	0.233747	5.119929	-0.119122	0.143833	3.889157	-0.109959	1.798009	28.402147	-0.815409	0.000000	0.000000	28.375462	-8.605036	21.892024	9.204442	-17.000499	44.104076	24.874745	61.344429	-7.238587	6.284754	16.063971	-0.448899	26.770842	120.191044	87.627620	-2.184451	-0.758793
2.366667	11.804773	-17.996015	100.754510	0.149257	0.566384	0.654874	31.386974	5.607654	-22.176371	21.445824	0.374300	38.388110	-3.391189	0.000000	34.655908	-7.890501	8.215915	22.478411	0.392322	42.110200	10.060569	0.000000	0.245911	2.513797	-0.172328	0.456682	3.343350	-0.183099	0.404008	6.112046	-0.183099	0.281052	6.112046	-0.150787	0.228353	5.126135	-0.140017	0.140514	3.893872	-0.129246	1.756520	28.436575	-0.958439	0.000000	0.000000	28.367576	-8.734489	21.750339	8.941891	-17.151886	40.665269	25.460767	63.160683	-7.479577	6.318383	15.571371	-0.180890	22.666485	112.859423	92.170247	-3.395355	0.608744
2.383333	11.759321	-17.911800	100.932118	0.149673	0.567003	0.655267	31.261393	5.525109	-22.384380	21.350070	0.372629	38.142287	-3.732139	0.000000	34.536679	-7.690097	9.041917	22.293097	0.389088	41.862426	9.445266	0.000000	0.238860	2.499651	-0.196685	0.443588	3.324536	-0.208978	0.392424	6.077651	-0.208978	0.272994	6.077651	-0.172099	0.221806	5.097288	-0.159807	0.136485	3.871959	-0.147514	1.706156	28.276550	-1.093903	0.000000	0.000000	28.358924	-8.756029	21.500635	8.953721	-17.099859	39.279541	25.630722	63.231624	-7.533465	6.027368	15.477378	0.406616	22.170480	103.790802	94.011286	-4.653062	1.124910
2.400000	11.563467	-17.873275	100.947958	0.150519	0.567483	0.655628	31.219279	5.397485	-22.330323	21.334703	0.372361	37.863169	-4.282012	0.000000	34.364392	-7.445707	9.664388	22.019604	0.384315	41.619491	8.839498	0.000000	0.232899	2.461049	-0.213045	0.432517	3.273195	-0.226360	0.382630	5.983794	-0.226360	0.266181	5.983794	-0.186414	0.216270	5.018570	-0.173099	0.133079	3.812164	-0.159784	1.663576	27.839875	-1.184893	0.000000	0.000000	28.350845	-8.633510	21.072932	9.203569	-16.798556	40.064518	25.363386	61.658296	-7.419710	5.458699	15.676992	1.157354	24.413470	93.560156	93.612492	-5.856130	0.945532
2.416667	11.211158	-17.894655	100.849512	0.151757	0.567730	0.656049	31.298764	5.178386	-22.069085	21.446301	0.374309	37.591670	-5.001780	0.000000	34.173314	-7.127110	10.119086	21.682768	0.378436	41.341028	8.204113	0.000000	0.229634	2.396378	-0.237357	0.426453	3.187182	-0.252191	0.377265	5.826553	-0.252191	0.262448	5.826553	-0.207687	0.213238	4.886693	-0.192852	0.131213	3.711989	-0.178017	1.640250	27.108304	-1.320106	0.000000	0.000000	28.343817	-8.284310	20.534307	9.697074	-16.288729	42.217432	24.873600	58.785560	-7.244942	4.785079	16.096101	1.963214	29.182138	82.616713	91.011514	-7.007752	0.178705
2.433333	10.650566	-17.985689	100.533924	0.153467	0.567706	0.656538	31.516644	4.870612	-21.515887	21.702252	0.378776	37.333615	-5.850295	0.000000	33.928245	-6.715862	10.373533	21.245687	0.370807	40.987700	7.404574	0.000000	0.229146	2.300186	-0.253846	0.425547	3.059248	-0.269712	0.376464	5.592673	-0.269712	0.261891	5.592673	-0.222115	0.212785	4.690540	-0.206250	0.130934	3.562989	-0.190385	1.636767	26.020168	-1.411816	0.000000	0.000000	28.338419	-7.762850	19.792693	10.383034	-15.511179	46.138092	24.030581	54.621082	-6.947482	3.958265	16.640369	2.726190	35.896556	71.405774	86.742863	-8.030245	-0.921402
2.450000	9.947676	-18.137530	100.063902	0.155595	0.567381	0.657125	31.873783	4.521482	-20.682905	22.090040	0.385544	37.075715	-6.896697	0.000000	33.680739	-6.300642	10.205862	20.775096	0.362594	40.605356	6.808465	0.000000	0.231277	2.180621	-0.274583	0.429505	2.900226	-0.291744	0.379965	5.301963	-0.291744	0.264327	5.301963	-0.240260	0.214764	4.446723	-0.223098	0.132152	3.377783	-0.205937	1.651990	24.667625	-1.527147	0.000000	0.000000	28.335223	-6.988796	19.008070	11.132601	-14.473122	51.227664	22.913322	50.254898	-6.405922	3.170923	17.246225	3.383879	44.072700	60.325196	81.299961	-8.995374	-2.097224
